<mxfile host="65bd71144e">
    <diagram id="VOPsH5-ygTlTR2GmtJNe" name="Seite-1">
        <mxGraphModel dx="1888" dy="699" grid="1" gridSize="10" guides="1" tooltips="1" connect="1" arrows="1" fold="1" page="1" pageScale="1" pageWidth="827" pageHeight="1169" background="#ffffff" math="0" shadow="0">
            <root>
                <mxCell id="0"/>
                <mxCell id="1" parent="0"/>
                <mxCell id="2" value="" style="ellipse;fillColor=strokeColor;strokeColor=#000000;" parent="1" vertex="1">
                    <mxGeometry x="40" y="120" width="40" height="40" as="geometry"/>
                </mxCell>
                <mxCell id="3" value="" style="ellipse;html=1;shape=endState;fillColor=strokeColor;strokeColor=#000000;" parent="1" vertex="1">
                    <mxGeometry x="120" y="120" width="40" height="40" as="geometry"/>
                </mxCell>
                <mxCell id="11" style="edgeStyle=none;html=1;strokeColor=#000000;strokeWidth=2;startArrow=none;" parent="1" source="16" target="3" edge="1">
                    <mxGeometry relative="1" as="geometry">
                        <Array as="points"/>
                    </mxGeometry>
                </mxCell>
                <mxCell id="18" style="edgeStyle=none;html=1;exitX=1.002;exitY=0.116;exitDx=0;exitDy=0;exitPerimeter=0;strokeColor=#000000;strokeWidth=2;fontColor=#000000;endArrow=none;endFill=0;" parent="1" source="28" target="16" edge="1">
                    <mxGeometry relative="1" as="geometry">
                        <Array as="points">
                            <mxPoint x="336" y="140"/>
                        </Array>
                    </mxGeometry>
                </mxCell>
                <mxCell id="58" style="edgeStyle=none;html=1;exitX=0.287;exitY=0.501;exitDx=0;exitDy=0;exitPerimeter=0;entryX=0.5;entryY=0;entryDx=0;entryDy=0;strokeColor=#000000;strokeWidth=2;endArrow=classic;endFill=1;" parent="1" source="57" target="55" edge="1">
                    <mxGeometry relative="1" as="geometry"/>
                </mxCell>
                <mxCell id="4" value="&lt;b&gt;START-SCREEN&lt;/b&gt;" style="shape=folder;align=center;verticalAlign=middle;fontStyle=0;tabWidth=160;tabHeight=40;tabPosition=left;html=1;boundedLbl=1;labelInHeader=1;rounded=1;absoluteArcSize=1;arcSize=30;strokeColor=#000000;fontFamily=TeX Gyre Termes;fillColor=#B3C5D0;fontColor=#000000;dashed=0;shadow=0;glass=0;points=[[0,0,0,0,0],[0,0.08,0,0,0],[0,0.31,0,0,0],[0,0.5,0,0,0],[0,0.54,0,0,0],[0,0.77,0,0,0],[0,1,0,0,0],[0.09,0,0,0,0],[0.18,0,0,0,0],[0.18,0.08,0,0,0],[0.25,1,0,0,0],[0.5,0,0,0,0],[0.5,1,0,0,0],[0.59,0.08,0,0,0],[0.75,1,0,0,0],[1,0.08,0,0,0],[1,0.31,0,0,0],[1,0.54,0,0,0],[1,0.77,0,0,0],[1,1,0,0,0]];strokeWidth=2;" parent="1" vertex="1">
                    <mxGeometry x="-160" y="200" width="800" height="320" as="geometry"/>
                </mxCell>
                <mxCell id="32" style="edgeStyle=none;html=1;exitX=1;exitY=0.5;exitDx=0;exitDy=0;strokeColor=#000000;strokeWidth=2;endArrow=none;endFill=0;" parent="1" source="7" target="24" edge="1">
                    <mxGeometry relative="1" as="geometry"/>
                </mxCell>
                <mxCell id="38" style="edgeStyle=none;html=1;exitX=1;exitY=0.25;exitDx=0;exitDy=0;strokeColor=#000000;strokeWidth=2;endArrow=none;endFill=0;" parent="1" source="7" target="27" edge="1">
                    <mxGeometry relative="1" as="geometry">
                        <Array as="points">
                            <mxPoint x="244" y="350"/>
                        </Array>
                    </mxGeometry>
                </mxCell>
                <mxCell id="50" style="edgeStyle=none;html=1;entryX=0;entryY=0.5;entryDx=0;entryDy=0;strokeColor=#000000;strokeWidth=2;endArrow=classic;endFill=1;startArrow=none;" parent="1" source="178" target="42" edge="1">
                    <mxGeometry relative="1" as="geometry">
                        <Array as="points">
                            <mxPoint x="20" y="485"/>
                        </Array>
                    </mxGeometry>
                </mxCell>
                <mxCell id="180" style="edgeStyle=none;html=1;exitX=0.25;exitY=1;exitDx=0;exitDy=0;strokeColor=#000000;strokeWidth=2;endFill=0;startArrow=none;endArrow=none;" edge="1" parent="1" source="7" target="178">
                    <mxGeometry relative="1" as="geometry"/>
                </mxCell>
                <mxCell id="7" value="&lt;b style=&quot;font-size: 20px;&quot;&gt;START&lt;br&gt;&lt;/b&gt;&lt;br&gt;entry / initialize all buttons&lt;br&gt;do / wait for player input&lt;br&gt;" style="html=1;align=center;verticalAlign=middle;rounded=1;absoluteArcSize=1;arcSize=30;dashed=0;fillColor=#B3C5D0;fontColor=#000000;strokeColor=#000000;fontFamily=TeX Gyre Termes;shadow=0;glass=0;" parent="1" vertex="1">
                    <mxGeometry x="-40" y="320" width="240" height="120" as="geometry"/>
                </mxCell>
                <mxCell id="39" style="edgeStyle=none;html=1;exitX=0;exitY=0.25;exitDx=0;exitDy=0;strokeColor=#000000;strokeWidth=2;endArrow=none;endFill=0;" parent="1" source="8" target="27" edge="1">
                    <mxGeometry relative="1" as="geometry">
                        <Array as="points">
                            <mxPoint x="324" y="350"/>
                        </Array>
                    </mxGeometry>
                </mxCell>
                <mxCell id="48" style="edgeStyle=none;html=1;exitX=0;exitY=0.75;exitDx=0;exitDy=0;strokeColor=#000000;strokeWidth=2;endArrow=none;endFill=0;" parent="1" source="8" target="45" edge="1">
                    <mxGeometry relative="1" as="geometry"/>
                </mxCell>
                <mxCell id="8" value="&lt;span style=&quot;font-size: 20px;&quot;&gt;&lt;b&gt;SETTINGS&lt;br&gt;&lt;/b&gt;&lt;/span&gt;&lt;br&gt;entry / initialize all buttons&lt;br&gt;do / show all buttons&lt;br&gt;exit / save player input" style="html=1;align=center;verticalAlign=middle;rounded=1;absoluteArcSize=1;arcSize=30;dashed=0;fillColor=#B3C5D0;fontColor=#000000;strokeColor=#000000;fontFamily=TeX Gyre Termes;shadow=0;glass=0;" parent="1" vertex="1">
                    <mxGeometry x="360" y="320" width="240" height="120" as="geometry"/>
                </mxCell>
                <mxCell id="10" style="edgeStyle=none;html=1;strokeColor=#000000;strokeWidth=2;startArrow=none;exitX=0;exitY=0.5;exitDx=0;exitDy=0;exitPerimeter=0;" parent="1" source="13" edge="1">
                    <mxGeometry relative="1" as="geometry">
                        <mxPoint x="-160" y="380" as="targetPoint"/>
                        <Array as="points">
                            <mxPoint x="-140" y="140"/>
                            <mxPoint x="-200" y="140"/>
                            <mxPoint x="-200" y="380"/>
                        </Array>
                    </mxGeometry>
                </mxCell>
                <mxCell id="14" value="" style="edgeStyle=none;html=1;strokeColor=#000000;strokeWidth=2;endArrow=none;" parent="1" source="2" target="13" edge="1">
                    <mxGeometry relative="1" as="geometry">
                        <mxPoint x="80" y="140" as="sourcePoint"/>
                        <mxPoint x="-84.40000000000009" y="200" as="targetPoint"/>
                        <Array as="points"/>
                    </mxGeometry>
                </mxCell>
                <mxCell id="13" value="player starts application" style="text;html=1;align=center;verticalAlign=middle;resizable=0;points=[];autosize=1;strokeColor=none;fillColor=none;fontSize=9;fontFamily=TeX Gyre Termes;fontColor=#000000;fontStyle=1" parent="1" vertex="1">
                    <mxGeometry x="-120" y="130" width="120" height="20" as="geometry"/>
                </mxCell>
                <mxCell id="16" value="exit button pressed" style="text;html=1;align=center;verticalAlign=middle;resizable=0;points=[];autosize=1;strokeColor=none;fillColor=none;fontSize=9;fontFamily=TeX Gyre Termes;fontColor=#000000;fontStyle=1" parent="1" vertex="1">
                    <mxGeometry x="210" y="130" width="100" height="20" as="geometry"/>
                </mxCell>
                <mxCell id="20" style="edgeStyle=none;html=1;strokeColor=#000000;strokeWidth=2;fontColor=#000000;endArrow=classic;endFill=1;entryX=0;entryY=0.5;entryDx=0;entryDy=0;" parent="1" source="19" target="7" edge="1">
                    <mxGeometry relative="1" as="geometry">
                        <mxPoint x="-36" y="350" as="targetPoint"/>
                    </mxGeometry>
                </mxCell>
                <mxCell id="41" style="edgeStyle=none;html=1;exitX=0;exitY=0.5;exitDx=0;exitDy=0;strokeColor=#000000;strokeWidth=2;endArrow=none;endFill=0;dashed=1;dashPattern=1 1;" parent="1" source="19" edge="1">
                    <mxGeometry relative="1" as="geometry">
                        <mxPoint x="-160" y="380" as="targetPoint"/>
                    </mxGeometry>
                </mxCell>
                <mxCell id="19" value="" style="ellipse;strokeColor=#000000;fontColor=#000000;fillColor=#666666;" parent="1" vertex="1">
                    <mxGeometry x="-120" y="365" width="30" height="30" as="geometry"/>
                </mxCell>
                <mxCell id="28" style="edgeStyle=none;html=1;exitX=1;exitY=0.5;exitDx=0;exitDy=0;strokeColor=#000000;strokeWidth=2;endArrow=none;endFill=0;dashed=1;dashPattern=1 1;" parent="1" source="21" edge="1">
                    <mxGeometry relative="1" as="geometry">
                        <mxPoint x="336" y="240" as="targetPoint"/>
                        <Array as="points">
                            <mxPoint x="336" y="275"/>
                        </Array>
                    </mxGeometry>
                </mxCell>
                <mxCell id="21" value="" style="shape=sumEllipse;perimeter=ellipsePerimeter;whiteSpace=wrap;html=1;backgroundOutline=1;strokeColor=#000000;fontColor=#000000;fillColor=#666666;" parent="1" vertex="1">
                    <mxGeometry x="269" y="260" width="30" height="30" as="geometry"/>
                </mxCell>
                <mxCell id="31" style="edgeStyle=none;html=1;strokeColor=#000000;strokeWidth=2;endArrow=classic;endFill=1;" parent="1" source="24" target="8" edge="1">
                    <mxGeometry relative="1" as="geometry"/>
                </mxCell>
                <mxCell id="24" value="settings button pressed" style="text;html=1;align=center;verticalAlign=middle;resizable=0;points=[];autosize=1;strokeColor=none;fillColor=none;fontSize=9;fontFamily=TeX Gyre Termes;fontColor=#000000;fontStyle=1" parent="1" vertex="1">
                    <mxGeometry x="229" y="370" width="110" height="20" as="geometry"/>
                </mxCell>
                <mxCell id="37" style="edgeStyle=none;html=1;entryX=0.5;entryY=1;entryDx=0;entryDy=0;strokeColor=#000000;strokeWidth=2;endArrow=classic;endFill=1;" parent="1" source="27" target="21" edge="1">
                    <mxGeometry relative="1" as="geometry"/>
                </mxCell>
                <mxCell id="27" value="player presses exit button" style="text;html=1;align=center;verticalAlign=middle;resizable=0;points=[];autosize=1;strokeColor=none;fillColor=none;fontSize=9;fontFamily=TeX Gyre Termes;fontColor=#000000;fontStyle=1" parent="1" vertex="1">
                    <mxGeometry x="224" y="310" width="120" height="20" as="geometry"/>
                </mxCell>
                <mxCell id="57" style="edgeStyle=none;html=1;exitX=0.5;exitY=1;exitDx=0;exitDy=0;strokeColor=#000000;strokeWidth=2;endArrow=none;endFill=0;dashed=1;dashPattern=1 1;" parent="1" source="42" edge="1">
                    <mxGeometry relative="1" as="geometry">
                        <mxPoint x="80" y="520" as="targetPoint"/>
                    </mxGeometry>
                </mxCell>
                <mxCell id="42" value="" style="shape=sumEllipse;perimeter=ellipsePerimeter;whiteSpace=wrap;html=1;backgroundOutline=1;strokeColor=#000000;fontColor=#000000;fillColor=#666666;" parent="1" vertex="1">
                    <mxGeometry x="65" y="470" width="30" height="30" as="geometry"/>
                </mxCell>
                <mxCell id="49" style="edgeStyle=none;html=1;entryX=1;entryY=0.75;entryDx=0;entryDy=0;strokeColor=#000000;strokeWidth=2;endArrow=classic;endFill=1;" parent="1" source="45" target="7" edge="1">
                    <mxGeometry relative="1" as="geometry"/>
                </mxCell>
                <mxCell id="45" value="back button pressed" style="text;html=1;align=center;verticalAlign=middle;resizable=0;points=[];autosize=1;strokeColor=none;fillColor=none;fontSize=9;fontFamily=TeX Gyre Termes;fontColor=#000000;fontStyle=1" parent="1" vertex="1">
                    <mxGeometry x="234" y="400" width="100" height="20" as="geometry"/>
                </mxCell>
                <mxCell id="59" style="edgeStyle=none;html=1;exitX=0;exitY=0.5;exitDx=0;exitDy=0;strokeColor=#000000;strokeWidth=2;endArrow=classic;endFill=1;startArrow=none;" parent="1" source="61" edge="1">
                    <mxGeometry relative="1" as="geometry">
                        <mxPoint x="-160" y="380" as="targetPoint"/>
                        <Array as="points">
                            <mxPoint x="-200" y="630"/>
                            <mxPoint x="-200" y="380"/>
                        </Array>
                    </mxGeometry>
                </mxCell>
                <mxCell id="63" style="edgeStyle=none;html=1;strokeColor=#000000;strokeWidth=2;endArrow=none;endFill=0;exitX=0;exitY=0.25;exitDx=0;exitDy=0;" parent="1" source="55" target="61" edge="1">
                    <mxGeometry relative="1" as="geometry"/>
                </mxCell>
                <mxCell id="55" value="&lt;b style=&quot;font-size: 20px;&quot;&gt;SELECTION&lt;br&gt;&lt;/b&gt;&lt;br&gt;entry / show all spaceships&lt;br&gt;do / wait for player input&lt;br&gt;exit / save player config" style="html=1;align=center;verticalAlign=middle;rounded=1;absoluteArcSize=1;arcSize=30;dashed=0;fillColor=#B3C5D0;fontColor=#000000;strokeColor=#000000;fontFamily=TeX Gyre Termes;shadow=0;glass=0;strokeWidth=2;" parent="1" vertex="1">
                    <mxGeometry x="-40" y="600" width="240" height="120" as="geometry"/>
                </mxCell>
                <mxCell id="61" value="back button pressed" style="text;html=1;align=center;verticalAlign=middle;resizable=0;points=[];autosize=1;strokeColor=none;fillColor=none;fontSize=9;fontFamily=TeX Gyre Termes;fontColor=#000000;fontStyle=1" parent="1" vertex="1">
                    <mxGeometry x="-170" y="620" width="100" height="20" as="geometry"/>
                </mxCell>
                <mxCell id="71" value="&lt;b&gt;GAME-SCREEN&lt;/b&gt;" style="shape=folder;align=center;verticalAlign=middle;fontStyle=0;tabWidth=160;tabHeight=40;tabPosition=left;html=1;boundedLbl=1;labelInHeader=1;rounded=1;absoluteArcSize=1;arcSize=30;strokeColor=#000000;fontFamily=TeX Gyre Termes;fillColor=#B3C5D0;fontColor=#000000;dashed=0;shadow=0;glass=0;points=[[0,0,0,0,0],[0,0.08,0,0,0],[0,0.31,0,0,0],[0,0.5,0,0,0],[0,0.54,0,0,0],[0,0.77,0,0,0],[0,1,0,0,0],[0.09,0,0,0,0],[0.18,0,0,0,0],[0.18,0.08,0,0,0],[0.25,1,0,0,0],[0.5,0,0,0,0],[0.5,1,0,0,0],[0.59,0.08,0,0,0],[0.75,1,0,0,0],[1,0.08,0,0,0],[1,0.31,0,0,0],[1,0.54,0,0,0],[1,0.77,0,0,0],[1,1,0,0,0]];strokeWidth=2;perimeterSpacing=0;" parent="1" vertex="1">
                    <mxGeometry x="-160" y="760" width="800" height="600" as="geometry"/>
                </mxCell>
                <mxCell id="105" style="edgeStyle=none;html=1;exitX=1;exitY=0.5;exitDx=0;exitDy=0;strokeColor=#000000;strokeWidth=2;fontSize=20;endArrow=none;endFill=0;" parent="1" source="72" target="103" edge="1">
                    <mxGeometry relative="1" as="geometry">
                        <Array as="points">
                            <mxPoint x="205" y="940"/>
                        </Array>
                    </mxGeometry>
                </mxCell>
                <mxCell id="163" style="edgeStyle=none;html=1;exitX=0.25;exitY=1;exitDx=0;exitDy=0;strokeColor=#000000;strokeWidth=2;fontSize=12;endArrow=none;endFill=0;" parent="1" source="72" target="161" edge="1">
                    <mxGeometry relative="1" as="geometry"/>
                </mxCell>
                <mxCell id="72" value="&lt;b style=&quot;font-size: 20px;&quot;&gt;COUNTDOWN&lt;br&gt;&lt;/b&gt;&lt;br&gt;entry / start Timer&lt;br&gt;do / wait for Timer&lt;br&gt;exit / play start sound" style="html=1;align=center;verticalAlign=middle;rounded=1;absoluteArcSize=1;arcSize=30;dashed=0;fillColor=#B3C5D0;fontColor=#000000;strokeColor=#000000;fontFamily=TeX Gyre Termes;shadow=0;glass=0;" parent="1" vertex="1">
                    <mxGeometry x="-70" y="880" width="240" height="120" as="geometry"/>
                </mxCell>
                <mxCell id="73" style="edgeStyle=none;html=1;strokeColor=#000000;strokeWidth=2;fontColor=#000000;endArrow=classic;endFill=1;entryX=0;entryY=0.5;entryDx=0;entryDy=0;" parent="1" source="75" target="72" edge="1">
                    <mxGeometry relative="1" as="geometry">
                        <mxPoint x="-40" y="900" as="targetPoint"/>
                    </mxGeometry>
                </mxCell>
                <mxCell id="74" style="edgeStyle=none;html=1;exitX=0;exitY=0.5;exitDx=0;exitDy=0;strokeColor=#000000;strokeWidth=2;endArrow=none;endFill=0;dashed=1;dashPattern=1 1;" parent="1" source="75" edge="1">
                    <mxGeometry relative="1" as="geometry">
                        <mxPoint x="-170" y="940" as="targetPoint"/>
                    </mxGeometry>
                </mxCell>
                <mxCell id="75" value="" style="ellipse;strokeColor=#000000;fontColor=#000000;fillColor=#666666;" parent="1" vertex="1">
                    <mxGeometry x="-130" y="925" width="30" height="30" as="geometry"/>
                </mxCell>
                <mxCell id="78" value="&lt;b&gt;RUN&lt;/b&gt;" style="shape=folder;align=center;verticalAlign=middle;fontStyle=0;tabWidth=100;tabHeight=30;tabPosition=left;html=1;boundedLbl=1;labelInHeader=1;rounded=1;absoluteArcSize=1;arcSize=30;fontFamily=TeX Gyre Termes;fillColor=#B3C5D0;strokeColor=#000000;fontColor=#000000;dashed=0;shadow=0;glass=0;" parent="1" vertex="1">
                    <mxGeometry x="239" y="820" width="331" height="400" as="geometry"/>
                </mxCell>
                <mxCell id="81" value="" style="edgeStyle=none;html=1;exitX=0;exitY=0.75;exitDx=0;exitDy=0;strokeColor=#000000;strokeWidth=2;endArrow=none;endFill=1;" parent="1" source="55" target="80" edge="1">
                    <mxGeometry relative="1" as="geometry">
                        <mxPoint x="-40" y="690" as="sourcePoint"/>
                        <mxPoint x="-145.2666623424177" y="939.084000259455" as="targetPoint"/>
                        <Array as="points"/>
                    </mxGeometry>
                </mxCell>
                <mxCell id="82" style="edgeStyle=none;html=1;strokeColor=#000000;strokeWidth=2;endArrow=classic;endFill=1;" parent="1" source="80" edge="1">
                    <mxGeometry relative="1" as="geometry">
                        <mxPoint x="-160" y="940" as="targetPoint"/>
                        <Array as="points">
                            <mxPoint x="-200" y="690"/>
                            <mxPoint x="-200" y="940"/>
                        </Array>
                    </mxGeometry>
                </mxCell>
                <mxCell id="80" value="ship selected" style="text;html=1;align=center;verticalAlign=middle;resizable=0;points=[];autosize=1;strokeColor=none;fillColor=none;fontSize=9;fontFamily=TeX Gyre Termes;fontColor=#000000;fontStyle=1" parent="1" vertex="1">
                    <mxGeometry x="-150" y="680" width="70" height="20" as="geometry"/>
                </mxCell>
                <mxCell id="145" style="edgeStyle=none;html=1;entryX=0.5;entryY=0;entryDx=0;entryDy=0;strokeColor=#000000;strokeWidth=2;fontSize=12;endArrow=classic;endFill=1;" parent="1" source="93" target="117" edge="1">
                    <mxGeometry relative="1" as="geometry">
                        <Array as="points">
                            <mxPoint x="510" y="900"/>
                        </Array>
                    </mxGeometry>
                </mxCell>
                <mxCell id="93" value="SPACESHIP" style="shape=umlState;rounded=1;verticalAlign=middle;spacingTop=5;umlStateSymbol=collapseState;absoluteArcSize=1;arcSize=30;fontFamily=TeX Gyre Termes;fillColor=#647687;strokeColor=#314354;fontColor=#ffffff;dashed=0;shadow=0;glass=0;fontSize=20;fontStyle=1" parent="1" vertex="1">
                    <mxGeometry x="330" y="860" width="161" height="80" as="geometry"/>
                </mxCell>
                <mxCell id="148" style="edgeStyle=none;html=1;entryX=0;entryY=1;entryDx=0;entryDy=0;strokeColor=#000000;strokeWidth=2;fontSize=12;endArrow=classic;endFill=1;" parent="1" source="96" target="117" edge="1">
                    <mxGeometry relative="1" as="geometry">
                        <Array as="points">
                            <mxPoint x="510" y="1080"/>
                        </Array>
                    </mxGeometry>
                </mxCell>
                <mxCell id="96" value="WAVE" style="shape=umlState;rounded=1;verticalAlign=middle;spacingTop=5;umlStateSymbol=collapseState;absoluteArcSize=1;arcSize=30;fontFamily=TeX Gyre Termes;fillColor=#647687;strokeColor=#314354;fontColor=#ffffff;dashed=0;shadow=0;glass=0;fontSize=20;fontStyle=1;" parent="1" vertex="1">
                    <mxGeometry x="330" y="1040" width="160" height="80" as="geometry"/>
                </mxCell>
                <mxCell id="146" style="edgeStyle=none;html=1;exitX=1;exitY=0.5;exitDx=0;exitDy=0;entryX=0;entryY=0;entryDx=0;entryDy=0;strokeColor=#000000;strokeWidth=2;fontSize=12;endArrow=classic;endFill=1;" parent="1" source="97" target="117" edge="1">
                    <mxGeometry relative="1" as="geometry">
                        <Array as="points">
                            <mxPoint x="510" y="990"/>
                        </Array>
                    </mxGeometry>
                </mxCell>
                <mxCell id="97" value="SHOTS" style="shape=umlState;rounded=1;verticalAlign=middle;spacingTop=5;umlStateSymbol=collapseState;absoluteArcSize=1;arcSize=30;fontFamily=TeX Gyre Termes;fillColor=#647687;strokeColor=#314354;fontColor=#ffffff;dashed=0;shadow=0;glass=0;fontSize=20;fontStyle=1;" parent="1" vertex="1">
                    <mxGeometry x="330" y="950" width="160" height="80" as="geometry"/>
                </mxCell>
                <mxCell id="149" style="edgeStyle=none;html=1;entryX=0.5;entryY=1;entryDx=0;entryDy=0;strokeColor=#000000;strokeWidth=2;fontSize=12;endArrow=classic;endFill=1;" parent="1" source="98" target="117" edge="1">
                    <mxGeometry relative="1" as="geometry">
                        <Array as="points">
                            <mxPoint x="510" y="1170"/>
                        </Array>
                    </mxGeometry>
                </mxCell>
                <mxCell id="98" value="OBSTACLE" style="shape=umlState;rounded=1;verticalAlign=middle;spacingTop=5;umlStateSymbol=collapseState;absoluteArcSize=1;arcSize=30;fontFamily=TeX Gyre Termes;fillColor=#647687;strokeColor=#314354;fontColor=#ffffff;dashed=0;shadow=0;glass=0;fontSize=20;fontStyle=1;" parent="1" vertex="1">
                    <mxGeometry x="332" y="1130" width="159" height="80" as="geometry"/>
                </mxCell>
                <mxCell id="106" style="edgeStyle=none;html=1;entryX=0;entryY=0.5;entryDx=0;entryDy=0;strokeColor=#000000;strokeWidth=2;fontSize=20;endArrow=classic;endFill=1;" parent="1" source="103" target="86" edge="1">
                    <mxGeometry relative="1" as="geometry">
                        <Array as="points">
                            <mxPoint x="205" y="1035"/>
                        </Array>
                    </mxGeometry>
                </mxCell>
                <mxCell id="103" value="Timer is over" style="text;html=1;align=center;verticalAlign=middle;resizable=0;points=[];autosize=1;strokeColor=none;fillColor=none;fontSize=9;fontFamily=TeX Gyre Termes;fontColor=#000000;fontStyle=1" parent="1" vertex="1">
                    <mxGeometry x="170" y="950" width="70" height="20" as="geometry"/>
                </mxCell>
                <mxCell id="107" value="(composite)" style="text;html=1;align=center;verticalAlign=middle;resizable=0;points=[];autosize=1;strokeColor=none;fillColor=none;fontSize=9;fontFamily=TeX Gyre Termes;fontColor=#000000;fontStyle=1" parent="1" vertex="1">
                    <mxGeometry x="374.5" y="920" width="70" height="20" as="geometry"/>
                </mxCell>
                <mxCell id="108" value="(composite)" style="text;html=1;align=center;verticalAlign=middle;resizable=0;points=[];autosize=1;strokeColor=none;fillColor=none;fontSize=9;fontFamily=TeX Gyre Termes;fontColor=#000000;fontStyle=1" parent="1" vertex="1">
                    <mxGeometry x="374.5" y="1010" width="70" height="20" as="geometry"/>
                </mxCell>
                <mxCell id="109" value="(composite)" style="text;html=1;align=center;verticalAlign=middle;resizable=0;points=[];autosize=1;strokeColor=none;fillColor=none;fontSize=9;fontFamily=TeX Gyre Termes;fontColor=#000000;fontStyle=1" parent="1" vertex="1">
                    <mxGeometry x="374.5" y="1100" width="70" height="20" as="geometry"/>
                </mxCell>
                <mxCell id="110" value="(composite)" style="text;html=1;align=center;verticalAlign=middle;resizable=0;points=[];autosize=1;strokeColor=none;fillColor=none;fontSize=9;fontFamily=TeX Gyre Termes;fontColor=#000000;fontStyle=1" parent="1" vertex="1">
                    <mxGeometry x="375.5" y="1190" width="70" height="20" as="geometry"/>
                </mxCell>
                <mxCell id="128" style="edgeStyle=none;html=1;exitX=1;exitY=0.5;exitDx=0;exitDy=0;entryX=0.5;entryY=0;entryDx=0;entryDy=0;strokeColor=#000000;strokeWidth=2;fontSize=12;endArrow=none;endFill=0;" parent="1" source="117" target="126" edge="1">
                    <mxGeometry relative="1" as="geometry">
                        <Array as="points">
                            <mxPoint x="605" y="1035"/>
                        </Array>
                    </mxGeometry>
                </mxCell>
                <mxCell id="141" style="edgeStyle=none;html=1;exitX=0.5;exitY=0;exitDx=0;exitDy=0;entryX=0;entryY=0.5;entryDx=0;entryDy=0;strokeColor=#000000;strokeWidth=2;fontSize=12;endArrow=classic;endFill=1;" parent="1" source="86" target="93" edge="1">
                    <mxGeometry relative="1" as="geometry">
                        <Array as="points">
                            <mxPoint x="300" y="900"/>
                        </Array>
                    </mxGeometry>
                </mxCell>
                <mxCell id="142" style="edgeStyle=none;html=1;exitX=1;exitY=0;exitDx=0;exitDy=0;entryX=0;entryY=0.5;entryDx=0;entryDy=0;strokeColor=#000000;strokeWidth=2;fontSize=12;endArrow=classic;endFill=1;" parent="1" source="86" target="97" edge="1">
                    <mxGeometry relative="1" as="geometry">
                        <Array as="points">
                            <mxPoint x="300" y="990"/>
                        </Array>
                    </mxGeometry>
                </mxCell>
                <mxCell id="143" style="edgeStyle=none;html=1;exitX=1;exitY=1;exitDx=0;exitDy=0;entryX=0;entryY=0.5;entryDx=0;entryDy=0;strokeColor=#000000;strokeWidth=2;fontSize=12;endArrow=classic;endFill=1;" parent="1" source="86" target="96" edge="1">
                    <mxGeometry relative="1" as="geometry">
                        <Array as="points">
                            <mxPoint x="300" y="1080"/>
                        </Array>
                    </mxGeometry>
                </mxCell>
                <mxCell id="144" style="edgeStyle=none;html=1;exitX=0.5;exitY=1;exitDx=0;exitDy=0;entryX=0;entryY=0.5;entryDx=0;entryDy=0;strokeColor=#000000;strokeWidth=2;fontSize=12;endArrow=classic;endFill=1;" parent="1" source="86" target="98" edge="1">
                    <mxGeometry relative="1" as="geometry">
                        <Array as="points">
                            <mxPoint x="300" y="1170"/>
                        </Array>
                    </mxGeometry>
                </mxCell>
                <mxCell id="136" style="edgeStyle=none;html=1;exitX=0.75;exitY=0;exitDx=0;exitDy=0;strokeColor=#000000;strokeWidth=2;fontSize=12;endArrow=none;endFill=0;" parent="1" source="56" target="132" edge="1">
                    <mxGeometry relative="1" as="geometry"/>
                </mxCell>
                <mxCell id="56" value="&lt;span style=&quot;font-size: 20px;&quot;&gt;&lt;b&gt;PAUSE&lt;br&gt;&lt;/b&gt;&lt;/span&gt;&lt;br&gt;entry / initialize buttons&lt;br&gt;do / wait for player input" style="html=1;align=center;verticalAlign=middle;rounded=1;absoluteArcSize=1;arcSize=30;dashed=0;fillColor=#B3C5D0;fontColor=#000000;strokeColor=#000000;fontFamily=TeX Gyre Termes;shadow=0;glass=0;" parent="1" vertex="1">
                    <mxGeometry x="-70" y="1215" width="240" height="120" as="geometry"/>
                </mxCell>
                <mxCell id="129" style="edgeStyle=none;html=1;exitX=0;exitY=0.5;exitDx=0;exitDy=0;entryX=1;entryY=0.5;entryDx=0;entryDy=0;strokeColor=#000000;strokeWidth=2;fontSize=12;endArrow=classic;endFill=1;startArrow=none;" parent="1" source="134" target="56" edge="1">
                    <mxGeometry relative="1" as="geometry"/>
                </mxCell>
                <mxCell id="152" style="edgeStyle=none;html=1;entryX=0.5;entryY=0;entryDx=0;entryDy=0;strokeColor=#000000;strokeWidth=2;fontSize=12;endArrow=classic;endFill=1;startArrow=none;dashed=1;dashPattern=1 1;" parent="1" source="154" target="151" edge="1">
                    <mxGeometry relative="1" as="geometry">
                        <Array as="points">
                            <mxPoint x="360" y="1320"/>
                        </Array>
                    </mxGeometry>
                </mxCell>
                <mxCell id="126" value="" style="rhombus;fontSize=12;" parent="1" vertex="1">
                    <mxGeometry x="590" y="1260" width="30" height="30" as="geometry"/>
                </mxCell>
                <mxCell id="131" value="do / show stats" style="text;html=1;align=center;verticalAlign=middle;resizable=0;points=[];autosize=1;strokeColor=none;fillColor=none;fontSize=9;fontFamily=TeX Gyre Termes;fontColor=#000000;fontStyle=1" parent="1" vertex="1">
                    <mxGeometry x="254" y="860" width="80" height="20" as="geometry"/>
                </mxCell>
                <mxCell id="139" style="edgeStyle=none;html=1;entryX=0;entryY=0.5;entryDx=0;entryDy=0;strokeColor=#000000;strokeWidth=2;fontSize=12;endArrow=classic;endFill=1;startArrow=none;" parent="1" source="167" target="86" edge="1">
                    <mxGeometry relative="1" as="geometry">
                        <Array as="points"/>
                    </mxGeometry>
                </mxCell>
                <mxCell id="132" value="back button gets pressed" style="text;html=1;align=center;verticalAlign=middle;resizable=0;points=[];autosize=1;strokeColor=none;fillColor=none;fontSize=9;fontFamily=TeX Gyre Termes;fontColor=#000000;fontStyle=1" parent="1" vertex="1">
                    <mxGeometry x="50" y="1130" width="120" height="20" as="geometry"/>
                </mxCell>
                <mxCell id="135" value="" style="edgeStyle=none;html=1;exitX=0;exitY=0.5;exitDx=0;exitDy=0;entryX=1;entryY=0.5;entryDx=0;entryDy=0;strokeColor=#000000;strokeWidth=2;fontSize=12;endArrow=none;endFill=1;" parent="1" source="126" target="134" edge="1">
                    <mxGeometry relative="1" as="geometry">
                        <mxPoint x="699" y="1275" as="sourcePoint"/>
                        <mxPoint x="170" y="1275" as="targetPoint"/>
                    </mxGeometry>
                </mxCell>
                <mxCell id="134" value="pause button gets pressed" style="text;html=1;align=center;verticalAlign=middle;resizable=0;points=[];autosize=1;strokeColor=none;fillColor=none;fontSize=9;fontFamily=TeX Gyre Termes;fontColor=#000000;fontStyle=1" parent="1" vertex="1">
                    <mxGeometry x="409" y="1265" width="120" height="20" as="geometry"/>
                </mxCell>
                <mxCell id="156" style="edgeStyle=none;html=1;exitX=1;exitY=0.25;exitDx=0;exitDy=0;strokeColor=#000000;strokeWidth=2;fontSize=12;endArrow=none;endFill=0;" parent="1" source="138" target="16" edge="1">
                    <mxGeometry relative="1" as="geometry">
                        <Array as="points">
                            <mxPoint x="660" y="630"/>
                            <mxPoint x="660" y="140"/>
                        </Array>
                    </mxGeometry>
                </mxCell>
                <mxCell id="157" style="edgeStyle=none;html=1;strokeColor=#000000;strokeWidth=2;fontSize=12;endArrow=classic;endFill=1;startArrow=none;" parent="1" source="158" target="55" edge="1">
                    <mxGeometry relative="1" as="geometry"/>
                </mxCell>
                <mxCell id="138" value="&lt;span style=&quot;font-size: 20px;&quot;&gt;&lt;b&gt;END SCREEN&lt;br&gt;&lt;/b&gt;&lt;/span&gt;&lt;br&gt;entry / initialize buttons&lt;br&gt;do / show highscore&lt;br&gt;exit / save current score" style="html=1;align=center;verticalAlign=middle;rounded=1;absoluteArcSize=1;arcSize=30;dashed=0;fillColor=#B3C5D0;fontColor=#000000;strokeColor=#000000;fontFamily=TeX Gyre Termes;shadow=0;glass=0;strokeWidth=2;" parent="1" vertex="1">
                    <mxGeometry x="360" y="600" width="240" height="120" as="geometry"/>
                </mxCell>
                <mxCell id="153" style="edgeStyle=none;html=1;entryX=1;entryY=0.5;entryDx=0;entryDy=0;strokeColor=#000000;strokeWidth=2;fontSize=12;endArrow=classic;endFill=1;" parent="1" source="151" target="138" edge="1">
                    <mxGeometry relative="1" as="geometry">
                        <Array as="points">
                            <mxPoint x="360" y="1400"/>
                            <mxPoint x="660" y="1400"/>
                            <mxPoint x="660" y="660"/>
                        </Array>
                    </mxGeometry>
                </mxCell>
                <mxCell id="151" value="" style="shape=sumEllipse;perimeter=ellipsePerimeter;whiteSpace=wrap;html=1;backgroundOutline=1;strokeColor=#000000;fontColor=#000000;fillColor=#666666;" parent="1" vertex="1">
                    <mxGeometry x="345.5" y="1340" width="30" height="30" as="geometry"/>
                </mxCell>
                <mxCell id="155" value="" style="edgeStyle=none;html=1;strokeColor=#000000;strokeWidth=2;fontSize=12;endArrow=none;endFill=1;dashed=1;dashPattern=1 1;" parent="1" source="126" target="154" edge="1">
                    <mxGeometry relative="1" as="geometry">
                        <mxPoint x="605" y="1290" as="sourcePoint"/>
                        <mxPoint x="360.49999999999955" y="1340" as="targetPoint"/>
                        <Array as="points">
                            <mxPoint x="605" y="1320"/>
                        </Array>
                    </mxGeometry>
                </mxCell>
                <mxCell id="154" value="spaceship is destroyed" style="text;html=1;align=center;verticalAlign=middle;resizable=0;points=[];autosize=1;strokeColor=none;fillColor=none;fontSize=9;fontFamily=TeX Gyre Termes;fontColor=#000000;fontStyle=1" parent="1" vertex="1">
                    <mxGeometry x="414" y="1310" width="110" height="20" as="geometry"/>
                </mxCell>
                <mxCell id="159" value="" style="edgeStyle=none;html=1;strokeColor=#000000;strokeWidth=2;fontSize=12;endArrow=none;endFill=1;" parent="1" source="138" target="158" edge="1">
                    <mxGeometry relative="1" as="geometry">
                        <mxPoint x="360" y="660" as="sourcePoint"/>
                        <mxPoint x="200" y="660" as="targetPoint"/>
                    </mxGeometry>
                </mxCell>
                <mxCell id="158" value="restart button pressed" style="text;html=1;align=center;verticalAlign=middle;resizable=0;points=[];autosize=1;strokeColor=none;fillColor=none;fontSize=9;fontFamily=TeX Gyre Termes;fontColor=#000000;fontStyle=1" parent="1" vertex="1">
                    <mxGeometry x="229" y="650" width="110" height="20" as="geometry"/>
                </mxCell>
                <mxCell id="164" style="edgeStyle=none;html=1;entryX=0.25;entryY=0;entryDx=0;entryDy=0;strokeColor=#000000;strokeWidth=2;fontSize=12;endArrow=classic;endFill=1;" parent="1" source="161" target="56" edge="1">
                    <mxGeometry relative="1" as="geometry"/>
                </mxCell>
                <mxCell id="161" value="pause button gets pressed" style="text;html=1;align=center;verticalAlign=middle;resizable=0;points=[];autosize=1;strokeColor=none;fillColor=none;fontSize=9;fontFamily=TeX Gyre Termes;fontColor=#000000;fontStyle=1" parent="1" vertex="1">
                    <mxGeometry x="-70" y="1130" width="120" height="20" as="geometry"/>
                </mxCell>
                <mxCell id="166" value="" style="edgeStyle=none;html=1;entryX=0.5;entryY=1;entryDx=0;entryDy=0;strokeColor=#000000;strokeWidth=2;fontSize=12;endArrow=none;endFill=1;" parent="1" source="132" target="165" edge="1">
                    <mxGeometry relative="1" as="geometry">
                        <mxPoint x="110" y="1130" as="sourcePoint"/>
                        <mxPoint x="224" y="1035" as="targetPoint"/>
                        <Array as="points"/>
                    </mxGeometry>
                </mxCell>
                <mxCell id="165" value="" style="rhombus;fontSize=12;" parent="1" vertex="1">
                    <mxGeometry x="95" y="1065" width="30" height="30" as="geometry"/>
                </mxCell>
                <mxCell id="168" value="" style="edgeStyle=none;html=1;entryX=0;entryY=0.5;entryDx=0;entryDy=0;strokeColor=#000000;strokeWidth=2;fontSize=12;endArrow=none;endFill=1;startArrow=none;" parent="1" source="165" target="167" edge="1">
                    <mxGeometry relative="1" as="geometry">
                        <mxPoint x="110" y="1065" as="sourcePoint"/>
                        <mxPoint x="224" y="1035" as="targetPoint"/>
                        <Array as="points">
                            <mxPoint x="110" y="1035"/>
                        </Array>
                    </mxGeometry>
                </mxCell>
                <mxCell id="167" value="countdown = 0" style="text;html=1;align=center;verticalAlign=middle;resizable=0;points=[];autosize=1;strokeColor=none;fillColor=none;fontSize=9;fontFamily=TeX Gyre Termes;fontColor=#000000;fontStyle=1" parent="1" vertex="1">
                    <mxGeometry x="120" y="1025" width="80" height="20" as="geometry"/>
                </mxCell>
                <mxCell id="172" value="" style="edgeStyle=none;html=1;exitX=0;exitY=0.5;exitDx=0;exitDy=0;entryX=0.5;entryY=1;entryDx=0;entryDy=0;strokeColor=#000000;strokeWidth=2;fontSize=12;endArrow=none;endFill=1;" parent="1" source="165" target="171" edge="1">
                    <mxGeometry relative="1" as="geometry">
                        <mxPoint x="95" y="1080" as="sourcePoint"/>
                        <mxPoint x="50" y="1000" as="targetPoint"/>
                        <Array as="points">
                            <mxPoint x="50" y="1080"/>
                        </Array>
                    </mxGeometry>
                </mxCell>
                <mxCell id="173" style="edgeStyle=none;html=1;strokeColor=#000000;strokeWidth=2;fontSize=12;endArrow=classic;endFill=1;" parent="1" source="171" target="72" edge="1">
                    <mxGeometry relative="1" as="geometry"/>
                </mxCell>
                <mxCell id="171" value="countdown &amp;gt; 0" style="text;html=1;align=center;verticalAlign=middle;resizable=0;points=[];autosize=1;strokeColor=none;fillColor=none;fontSize=9;fontFamily=TeX Gyre Termes;fontColor=#000000;fontStyle=1" parent="1" vertex="1">
                    <mxGeometry x="10" y="1040" width="80" height="20" as="geometry"/>
                </mxCell>
                <mxCell id="174" style="edgeStyle=none;html=1;exitX=0;exitY=0;exitDx=0;exitDy=122.5;exitPerimeter=0;entryX=0;entryY=0;entryDx=331;entryDy=122.5;entryPerimeter=0;dashed=1;dashPattern=1 1;endArrow=none;endFill=0;strokeColor=#000000;strokeWidth=3;" parent="1" source="78" target="78" edge="1">
                    <mxGeometry relative="1" as="geometry"/>
                </mxCell>
                <mxCell id="175" style="edgeStyle=none;html=1;exitX=0;exitY=0;exitDx=0;exitDy=122.5;exitPerimeter=0;entryX=0;entryY=0;entryDx=331;entryDy=122.5;entryPerimeter=0;dashed=1;dashPattern=1 1;endArrow=none;endFill=0;strokeColor=#000000;strokeWidth=3;" parent="1" edge="1">
                    <mxGeometry relative="1" as="geometry">
                        <mxPoint x="234" y="1034.5" as="sourcePoint"/>
                        <mxPoint x="565" y="1034.5" as="targetPoint"/>
                    </mxGeometry>
                </mxCell>
                <mxCell id="86" value="" style="ellipse;strokeColor=#000000;fontColor=#000000;fillColor=#666666;" parent="1" vertex="1">
                    <mxGeometry x="224" y="1020" width="30" height="30" as="geometry"/>
                </mxCell>
                <mxCell id="177" style="edgeStyle=none;html=1;exitX=0;exitY=0;exitDx=0;exitDy=307.5;exitPerimeter=0;entryX=0;entryY=0;entryDx=331;entryDy=307.5;entryPerimeter=0;dashed=1;dashPattern=1 1;strokeColor=#000000;endArrow=none;endFill=0;strokeWidth=3;" parent="1" source="78" target="78" edge="1">
                    <mxGeometry relative="1" as="geometry"/>
                </mxCell>
                <mxCell id="117" value="" style="shape=sumEllipse;perimeter=ellipsePerimeter;whiteSpace=wrap;html=1;backgroundOutline=1;strokeColor=#000000;fontColor=#000000;fillColor=#666666;" parent="1" vertex="1">
                    <mxGeometry x="550" y="1020" width="30" height="30" as="geometry"/>
                </mxCell>
                <mxCell id="178" value="start button pressed" style="text;html=1;align=center;verticalAlign=middle;resizable=0;points=[];autosize=1;strokeColor=none;fillColor=none;fontSize=9;fontFamily=TeX Gyre Termes;fontColor=#000000;fontStyle=1" vertex="1" parent="1">
                    <mxGeometry x="-30" y="450" width="100" height="20" as="geometry"/>
                </mxCell>
            </root>
        </mxGraphModel>
    </diagram>
</mxfile>